<svg width="24" height="24" viewBox="0 0 24 24" fill="none" xmlns="http://www.w3.org/2000/svg">
<path fill-rule="evenodd" clip-rule="evenodd" d="M13.4141 3.82807C13.039 3.45312 12.5304 3.24249 12.0001 3.24249C11.4697 3.24249 10.9611 3.45312 10.5861 3.82807L9.91407 4.50007L11.4821 6.06807C11.8212 5.97769 12.1781 5.97806 12.5171 6.06913C12.856 6.16019 13.165 6.33876 13.4132 6.58693C13.6614 6.83509 13.8399 7.14414 13.931 7.48308C14.0221 7.82202 14.0224 8.17894 13.9321 8.51807L15.9821 10.5681C16.4073 10.4541 16.8583 10.4836 17.2651 10.6521C17.6719 10.8205 18.0117 11.1185 18.2319 11.4998C18.452 11.8811 18.5402 12.3244 18.4828 12.7609C18.4253 13.1974 18.2254 13.6028 17.9141 13.9141C17.6028 14.2254 17.1974 14.4253 16.7609 14.4828C16.3244 14.5402 15.8811 14.452 15.4998 14.2319C15.1185 14.0117 14.8205 13.6719 14.6521 13.2651C14.4836 12.8583 14.4541 12.4073 14.5681 11.9821L13.0001 10.4141V15.2681C13.3813 15.4882 13.6793 15.828 13.8478 16.2347C14.0162 16.6415 14.0458 17.0925 13.9318 17.5177C13.8179 17.943 13.5668 18.3187 13.2175 18.5867C12.8683 18.8548 12.4403 19 12.0001 19.0001C11.5598 19 11.1319 18.8548 10.7826 18.5867C10.4333 18.3187 10.1823 17.943 10.0683 17.5177C9.95436 17.0925 9.98391 16.6415 10.1524 16.2347C10.3208 15.828 10.6188 15.4882 11.0001 15.2681V9.73207C10.6187 9.51194 10.3206 9.1721 10.1521 8.76528C9.9836 8.35846 9.95405 7.90739 10.0681 7.48207L8.50007 5.91407L3.82807 10.5861C3.45312 10.9611 3.24249 11.4697 3.24249 12.0001C3.24249 12.5304 3.45312 13.039 3.82807 13.4141L10.5861 20.1721C10.9611 20.547 11.4697 20.7576 12.0001 20.7576C12.5304 20.7576 13.039 20.547 13.4141 20.1721L20.1721 13.4141C20.547 13.039 20.7576 12.5304 20.7576 12.0001C20.7576 11.4697 20.547 10.9611 20.1721 10.5861L13.4141 3.82807ZM9.17207 2.41407C9.92218 1.66418 10.9394 1.24292 12.0001 1.24292C13.0607 1.24292 14.078 1.66418 14.8281 2.41407L21.5861 9.17207C22.3359 9.92218 22.7572 10.9394 22.7572 12.0001C22.7572 13.0607 22.3359 14.078 21.5861 14.8281L14.8281 21.5861C14.078 22.3359 13.0607 22.7572 12.0001 22.7572C10.9394 22.7572 9.92218 22.3359 9.17207 21.5861L2.41407 14.8281C1.66418 14.078 1.24292 13.0607 1.24292 12.0001C1.24292 10.9394 1.66418 9.92218 2.41407 9.17207L9.17207 2.41407Z" fill="black"/>
</svg>
