<svg width="24" height="24" viewBox="0 0 24 24" fill="none" xmlns="http://www.w3.org/2000/svg">
<path fill-rule="evenodd" clip-rule="evenodd" d="M16.3721 2.15054C17.6491 2.38454 18.9311 2.95954 19.5521 4.14254C20.1921 5.36254 20.1251 6.54854 19.5931 7.54754C19.0901 8.49154 18.2131 9.19754 17.3311 9.67154C16.4411 10.1495 15.4381 10.4495 14.5591 10.5085C14.1221 10.5385 13.6621 10.5105 13.2431 10.3755C12.8231 10.2395 12.3601 9.96354 12.1031 9.44354C11.9875 9.21339 11.9651 8.94751 12.0407 8.7013C12.1163 8.45508 12.2839 8.24751 12.5087 8.12183C12.7335 7.99615 12.9982 7.96205 13.2475 8.02664C13.4968 8.09123 13.7116 8.24952 13.8471 8.46854C13.8504 8.4699 13.8538 8.47124 13.8571 8.47254C13.9571 8.50454 14.1441 8.53254 14.4261 8.51254C14.9861 8.47554 15.7141 8.26954 16.3841 7.90954C17.0611 7.54654 17.5741 7.08354 17.8281 6.60654C18.0531 6.18554 18.1101 5.69854 17.7821 5.07254C17.5821 4.69054 17.0441 4.30654 16.0121 4.11754C15.0141 3.93454 13.7471 3.97754 12.4471 4.24754C11.1501 4.51754 9.8841 5.00054 8.8801 5.64454C7.8661 6.29454 7.2051 7.05054 6.9511 7.83454C6.6771 8.68154 6.7741 9.27854 7.0211 9.76854C7.2931 10.3055 7.7891 10.8035 8.4741 11.3365C8.8061 11.5945 9.1581 11.8435 9.5291 12.1065L9.5491 12.1205C9.9201 12.3825 10.3121 12.6595 10.6771 12.9485C10.9861 13.1915 11.3001 13.4615 11.5891 13.7655C12.8821 13.5155 14.0021 13.5425 14.9211 13.9625C16.1031 14.5035 16.6951 15.5695 16.9741 16.7755C17.0076 16.9048 17.0148 17.0395 16.9954 17.1716C16.976 17.3038 16.9303 17.4307 16.8611 17.5449C16.7918 17.659 16.7004 17.7582 16.5922 17.8365C16.484 17.9148 16.3612 17.9706 16.2311 18.0006C16.101 18.0307 15.9662 18.0344 15.8346 18.0115C15.703 17.9886 15.5774 17.9396 15.4651 17.8673C15.3528 17.7951 15.256 17.7011 15.1806 17.5909C15.1053 17.4806 15.0527 17.3564 15.0261 17.2255C14.8261 16.3595 14.4991 15.9695 14.0891 15.7815C13.7891 15.6445 13.3391 15.5655 12.6711 15.6265C13.2871 17.7915 12.2111 19.7525 10.8951 20.8635C10.1851 21.4625 9.3181 21.8985 8.4491 21.9845C7.5421 22.0755 6.5721 21.7705 6.0021 20.8235C5.5001 19.9865 5.4961 19.0965 5.7581 18.3035C6.0101 17.5415 6.5081 16.8555 7.0541 16.2875C7.74839 15.5769 8.54647 14.9758 9.42109 14.5045C9.08545 14.2456 8.74334 13.9952 8.3951 13.7535L8.3591 13.7275C7.98194 13.4654 7.61085 13.1947 7.24609 12.9155C6.49609 12.3305 5.7111 11.6115 5.2361 10.6695C4.7361 9.67954 4.6221 8.53554 5.0491 7.21754C5.4961 5.83554 6.5641 4.75354 7.8001 3.96054C9.0461 3.16254 10.5501 2.59954 12.0401 2.29054C13.5261 1.98054 15.0601 1.91054 16.3721 2.15054ZM10.7221 16.0905C9.89198 16.4818 9.1382 17.0179 8.4961 17.6735C8.0661 18.1205 7.7811 18.5555 7.6561 18.9325C7.5421 19.2785 7.5681 19.5455 7.7161 19.7935C7.7991 19.9305 7.9261 20.0275 8.2511 19.9945C8.6161 19.9585 9.1171 19.7475 9.6061 19.3345C10.5411 18.5465 11.1071 17.3245 10.7221 16.0905V16.0905ZM13.8121 8.45454H13.8141H13.8121Z" fill="black"/>
</svg>
