<svg width="16" height="16" viewBox="0 0 16 16" fill="none" xmlns="http://www.w3.org/2000/svg">
<g clip-path="url(#clip0_12_61)">
<path d="M15.3039 5.58189L10.8978 5.16525C10.62 5.14 10.38 4.96325 10.2665 4.69812L8.68836 0.872663C8.43585 0.2414 7.53933 0.2414 7.28683 0.872663L5.7213 4.69812C5.62029 4.96325 5.36779 5.14 5.09003 5.16525L0.683816 5.58189C0.0273019 5.64501 -0.237829 6.46566 0.254557 6.90754L3.575 9.82398C3.78963 10.0134 3.87801 10.2911 3.81488 10.5689L2.81749 14.6593C2.66598 15.3033 3.36037 15.8335 3.94113 15.4927L7.61509 13.3337C7.85497 13.1948 8.14535 13.1948 8.38523 13.3337L12.0593 15.4927C12.6401 15.8335 13.3345 15.316 13.1828 14.6593L12.1981 10.5689C12.1349 10.2911 12.2233 10.0134 12.4379 9.82398L15.7584 6.90754C16.2381 6.46566 15.9604 5.64501 15.3039 5.58189Z" fill="#FFC22B"/>
</g>
<defs>
<clipPath id="clip0_12_61">
<rect width="15.9999" height="16" fill="white"/>
</clipPath>
</defs>
</svg>
